<svg width="138" height="16" viewBox="0 0 138 16" fill="none" xmlns="http://www.w3.org/2000/svg">
<path fill-rule="evenodd" clip-rule="evenodd" d="M8 16C12.4183 16 16 12.4183 16 8C16 3.58172 12.4183 0 8 0C3.58172 0 0 3.58172 0 8C0 12.4183 3.58172 16 8 16ZM8 12C10.2091 12 12 10.2091 12 8C12 5.79086 10.2091 4 8 4C5.79086 4 4 5.79086 4 8C4 10.2091 5.79086 12 8 12Z" fill="url(#paint0_linear_55067_464)"/>
<path d="M21 2C21 3.10457 20.1046 4 19 4C17.8954 4 17 3.10457 17 2C17 0.89543 17.8954 0 19 0C20.1046 0 21 0.89543 21 2Z" fill="url(#paint1_linear_55067_464)"/>
<path d="M17 2H21V16H17V2Z" fill="url(#paint2_linear_55067_464)"/>
<path d="M37 5H41V16H37V5Z" fill="url(#paint3_linear_55067_464)"/>
<path d="M43 5H47V16H43V5Z" fill="url(#paint4_linear_55067_464)"/>
<path d="M42 0C44.7614 0 47 2.23858 47 5H43C43 4.44772 42.5523 4 42 4C41.4477 4 41 4.44772 41 5H37C37 2.23858 39.2386 0 42 0Z" fill="url(#paint5_linear_55067_464)"/>
<path d="M26 2C26 3.10457 25.1046 4 24 4C22.8954 4 22 3.10457 22 2C22 0.89543 22.8954 0 24 0C25.1046 0 26 0.89543 26 2Z" fill="url(#paint6_linear_55067_464)"/>
<path d="M26 14C26 15.1046 25.1046 16 24 16C22.8954 16 22 15.1046 22 14C22 12.8954 22.8954 12 24 12C25.1046 12 26 12.8954 26 14Z" fill="url(#paint7_linear_55067_464)"/>
<path d="M22 2H26V14H22V2Z" fill="url(#paint8_linear_55067_464)"/>
<path d="M30 2H34V14H30V2Z" fill="url(#paint9_linear_55067_464)"/>
<path d="M24 0H36V4H24V0Z" fill="url(#paint10_linear_55067_464)"/>
<path d="M24 12H36V16H24V12Z" fill="url(#paint11_linear_55067_464)"/>
<path fill-rule="evenodd" clip-rule="evenodd" d="M58 16C62.4183 16 66 12.4183 66 8C66 3.58172 62.4183 0 58 0C53.5817 0 50 3.58172 50 8C50 12.4183 53.5817 16 58 16ZM58 12C60.2091 12 62 10.2091 62 8C62 5.79086 60.2091 4 58 4C55.7909 4 54 5.79086 54 8C54 10.2091 55.7909 12 58 12Z" fill="url(#paint12_linear_55067_464)"/>
<path d="M71 2C71 3.10457 70.1046 4 69 4C67.8954 4 67 3.10457 67 2C67 0.89543 67.8954 0 69 0C70.1046 0 71 0.89543 71 2Z" fill="url(#paint13_linear_55067_464)"/>
<path d="M67 2H71V16H67V2Z" fill="url(#paint14_linear_55067_464)"/>
<path d="M76 14C76 15.1046 75.1046 16 74 16C72.8954 16 72 15.1046 72 14C72 12.8954 72.8954 12 74 12C75.1046 12 76 12.8954 76 14Z" fill="url(#paint15_linear_55067_464)"/>
<path d="M88 14C88 15.1046 87.1046 16 86 16C84.8954 16 84 15.1046 84 14C84 12.8954 84.8954 12 86 12C87.1046 12 88 12.8954 88 14Z" fill="url(#paint16_linear_55067_464)"/>
<path d="M74 12H86V16H74V12Z" fill="url(#paint17_linear_55067_464)"/>
<path d="M74 3H86V7H74V3Z" fill="url(#paint18_linear_55067_464)"/>
<path d="M72 0H76V14H72V0Z" fill="url(#paint19_linear_55067_464)"/>
<path d="M84 0H88V14H84V0Z" fill="url(#paint20_linear_55067_464)"/>
<path d="M104 5H108V16H104V5Z" fill="url(#paint21_linear_55067_464)"/>
<path d="M110 5H114V16H110V5Z" fill="url(#paint22_linear_55067_464)"/>
<path d="M109 0C111.761 0 114 2.23858 114 5H110C110 4.44772 109.552 4 109 4C108.448 4 108 4.44772 108 5H104C104 2.23858 106.239 0 109 0Z" fill="url(#paint23_linear_55067_464)"/>
<path d="M93 2C93 3.10457 92.1046 4 91 4C89.8954 4 89 3.10457 89 2C89 0.89543 89.8954 0 91 0C92.1046 0 93 0.89543 93 2Z" fill="url(#paint24_linear_55067_464)"/>
<path d="M93 14C93 15.1046 92.1046 16 91 16C89.8954 16 89 15.1046 89 14C89 12.8954 89.8954 12 91 12C92.1046 12 93 12.8954 93 14Z" fill="url(#paint25_linear_55067_464)"/>
<path d="M89 2H93V14H89V2Z" fill="url(#paint26_linear_55067_464)"/>
<path d="M91 0H103V4H91V0Z" fill="url(#paint27_linear_55067_464)"/>
<path d="M91 12H103V16H91V12Z" fill="url(#paint28_linear_55067_464)"/>
<path d="M117 8H121V16H117V8Z" fill="url(#paint29_linear_55067_464)"/>
<path d="M129 8H133V16H129V8Z" fill="url(#paint30_linear_55067_464)"/>
<path d="M125 0C129.418 0 133 3.58172 133 8H129C129 5.79086 127.209 4 125 4C122.791 4 121 5.79086 121 8H117C117 3.58172 120.582 0 125 0Z" fill="url(#paint31_linear_55067_464)"/>
<path d="M125 6C125 7.10457 124.105 8 123 8C124.105 8 125 8.89543 125 10C125 8.89543 125.895 8 127 8C125.895 8 125 7.10457 125 6Z" fill="url(#paint32_linear_55067_464)"/>
<path d="M134 8H138V16H134V8Z" fill="url(#paint33_linear_55067_464)"/>
<path d="M138 8C138 9.10457 137.105 10 136 10C134.895 10 134 9.10457 134 8C134 6.89543 134.895 6 136 6C137.105 6 138 6.89543 138 8Z" fill="url(#paint34_linear_55067_464)"/>
<path d="M136 0C136 1.10457 135.105 2 134 2C135.105 2 136 2.89543 136 4C136 2.89543 136.895 2 138 2C136.895 2 136 1.10457 136 0Z" fill="url(#paint35_linear_55067_464)"/>
<defs>
<linearGradient id="paint0_linear_55067_464" x1="0" y1="8" x2="138" y2="8" gradientUnits="userSpaceOnUse">
<stop stop-color="#4991E7"/>
<stop offset="0.5" stop-color="#7F7BD1"/>
<stop offset="1" stop-color="#D26565"/>
</linearGradient>
<linearGradient id="paint1_linear_55067_464" x1="0" y1="8" x2="138" y2="8" gradientUnits="userSpaceOnUse">
<stop stop-color="#4991E7"/>
<stop offset="0.5" stop-color="#7F7BD1"/>
<stop offset="1" stop-color="#D26565"/>
</linearGradient>
<linearGradient id="paint2_linear_55067_464" x1="0" y1="8" x2="138" y2="8" gradientUnits="userSpaceOnUse">
<stop stop-color="#4991E7"/>
<stop offset="0.5" stop-color="#7F7BD1"/>
<stop offset="1" stop-color="#D26565"/>
</linearGradient>
<linearGradient id="paint3_linear_55067_464" x1="0" y1="8" x2="138" y2="8" gradientUnits="userSpaceOnUse">
<stop stop-color="#4991E7"/>
<stop offset="0.5" stop-color="#7F7BD1"/>
<stop offset="1" stop-color="#D26565"/>
</linearGradient>
<linearGradient id="paint4_linear_55067_464" x1="0" y1="8" x2="138" y2="8" gradientUnits="userSpaceOnUse">
<stop stop-color="#4991E7"/>
<stop offset="0.5" stop-color="#7F7BD1"/>
<stop offset="1" stop-color="#D26565"/>
</linearGradient>
<linearGradient id="paint5_linear_55067_464" x1="0" y1="8" x2="138" y2="8" gradientUnits="userSpaceOnUse">
<stop stop-color="#4991E7"/>
<stop offset="0.5" stop-color="#7F7BD1"/>
<stop offset="1" stop-color="#D26565"/>
</linearGradient>
<linearGradient id="paint6_linear_55067_464" x1="0" y1="8" x2="138" y2="8" gradientUnits="userSpaceOnUse">
<stop stop-color="#4991E7"/>
<stop offset="0.5" stop-color="#7F7BD1"/>
<stop offset="1" stop-color="#D26565"/>
</linearGradient>
<linearGradient id="paint7_linear_55067_464" x1="0" y1="8" x2="138" y2="8" gradientUnits="userSpaceOnUse">
<stop stop-color="#4991E7"/>
<stop offset="0.5" stop-color="#7F7BD1"/>
<stop offset="1" stop-color="#D26565"/>
</linearGradient>
<linearGradient id="paint8_linear_55067_464" x1="0" y1="8" x2="138" y2="8" gradientUnits="userSpaceOnUse">
<stop stop-color="#4991E7"/>
<stop offset="0.5" stop-color="#7F7BD1"/>
<stop offset="1" stop-color="#D26565"/>
</linearGradient>
<linearGradient id="paint9_linear_55067_464" x1="0" y1="8" x2="138" y2="8" gradientUnits="userSpaceOnUse">
<stop stop-color="#4991E7"/>
<stop offset="0.5" stop-color="#7F7BD1"/>
<stop offset="1" stop-color="#D26565"/>
</linearGradient>
<linearGradient id="paint10_linear_55067_464" x1="0" y1="8" x2="138" y2="8" gradientUnits="userSpaceOnUse">
<stop stop-color="#4991E7"/>
<stop offset="0.5" stop-color="#7F7BD1"/>
<stop offset="1" stop-color="#D26565"/>
</linearGradient>
<linearGradient id="paint11_linear_55067_464" x1="0" y1="8" x2="138" y2="8" gradientUnits="userSpaceOnUse">
<stop stop-color="#4991E7"/>
<stop offset="0.5" stop-color="#7F7BD1"/>
<stop offset="1" stop-color="#D26565"/>
</linearGradient>
<linearGradient id="paint12_linear_55067_464" x1="0" y1="8" x2="138" y2="8" gradientUnits="userSpaceOnUse">
<stop stop-color="#4991E7"/>
<stop offset="0.5" stop-color="#7F7BD1"/>
<stop offset="1" stop-color="#D26565"/>
</linearGradient>
<linearGradient id="paint13_linear_55067_464" x1="0" y1="8" x2="138" y2="8" gradientUnits="userSpaceOnUse">
<stop stop-color="#4991E7"/>
<stop offset="0.5" stop-color="#7F7BD1"/>
<stop offset="1" stop-color="#D26565"/>
</linearGradient>
<linearGradient id="paint14_linear_55067_464" x1="0" y1="8" x2="138" y2="8" gradientUnits="userSpaceOnUse">
<stop stop-color="#4991E7"/>
<stop offset="0.5" stop-color="#7F7BD1"/>
<stop offset="1" stop-color="#D26565"/>
</linearGradient>
<linearGradient id="paint15_linear_55067_464" x1="0" y1="8" x2="138" y2="8" gradientUnits="userSpaceOnUse">
<stop stop-color="#4991E7"/>
<stop offset="0.5" stop-color="#7F7BD1"/>
<stop offset="1" stop-color="#D26565"/>
</linearGradient>
<linearGradient id="paint16_linear_55067_464" x1="0" y1="8" x2="138" y2="8" gradientUnits="userSpaceOnUse">
<stop stop-color="#4991E7"/>
<stop offset="0.5" stop-color="#7F7BD1"/>
<stop offset="1" stop-color="#D26565"/>
</linearGradient>
<linearGradient id="paint17_linear_55067_464" x1="0" y1="8" x2="138" y2="8" gradientUnits="userSpaceOnUse">
<stop stop-color="#4991E7"/>
<stop offset="0.5" stop-color="#7F7BD1"/>
<stop offset="1" stop-color="#D26565"/>
</linearGradient>
<linearGradient id="paint18_linear_55067_464" x1="0" y1="8" x2="138" y2="8" gradientUnits="userSpaceOnUse">
<stop stop-color="#4991E7"/>
<stop offset="0.5" stop-color="#7F7BD1"/>
<stop offset="1" stop-color="#D26565"/>
</linearGradient>
<linearGradient id="paint19_linear_55067_464" x1="0" y1="8" x2="138" y2="8" gradientUnits="userSpaceOnUse">
<stop stop-color="#4991E7"/>
<stop offset="0.5" stop-color="#7F7BD1"/>
<stop offset="1" stop-color="#D26565"/>
</linearGradient>
<linearGradient id="paint20_linear_55067_464" x1="0" y1="8" x2="138" y2="8" gradientUnits="userSpaceOnUse">
<stop stop-color="#4991E7"/>
<stop offset="0.5" stop-color="#7F7BD1"/>
<stop offset="1" stop-color="#D26565"/>
</linearGradient>
<linearGradient id="paint21_linear_55067_464" x1="0" y1="8" x2="138" y2="8" gradientUnits="userSpaceOnUse">
<stop stop-color="#4991E7"/>
<stop offset="0.5" stop-color="#7F7BD1"/>
<stop offset="1" stop-color="#D26565"/>
</linearGradient>
<linearGradient id="paint22_linear_55067_464" x1="0" y1="8" x2="138" y2="8" gradientUnits="userSpaceOnUse">
<stop stop-color="#4991E7"/>
<stop offset="0.5" stop-color="#7F7BD1"/>
<stop offset="1" stop-color="#D26565"/>
</linearGradient>
<linearGradient id="paint23_linear_55067_464" x1="0" y1="8" x2="138" y2="8" gradientUnits="userSpaceOnUse">
<stop stop-color="#4991E7"/>
<stop offset="0.5" stop-color="#7F7BD1"/>
<stop offset="1" stop-color="#D26565"/>
</linearGradient>
<linearGradient id="paint24_linear_55067_464" x1="0" y1="8" x2="138" y2="8" gradientUnits="userSpaceOnUse">
<stop stop-color="#4991E7"/>
<stop offset="0.5" stop-color="#7F7BD1"/>
<stop offset="1" stop-color="#D26565"/>
</linearGradient>
<linearGradient id="paint25_linear_55067_464" x1="0" y1="8" x2="138" y2="8" gradientUnits="userSpaceOnUse">
<stop stop-color="#4991E7"/>
<stop offset="0.5" stop-color="#7F7BD1"/>
<stop offset="1" stop-color="#D26565"/>
</linearGradient>
<linearGradient id="paint26_linear_55067_464" x1="0" y1="8" x2="138" y2="8" gradientUnits="userSpaceOnUse">
<stop stop-color="#4991E7"/>
<stop offset="0.5" stop-color="#7F7BD1"/>
<stop offset="1" stop-color="#D26565"/>
</linearGradient>
<linearGradient id="paint27_linear_55067_464" x1="0" y1="8" x2="138" y2="8" gradientUnits="userSpaceOnUse">
<stop stop-color="#4991E7"/>
<stop offset="0.5" stop-color="#7F7BD1"/>
<stop offset="1" stop-color="#D26565"/>
</linearGradient>
<linearGradient id="paint28_linear_55067_464" x1="0" y1="8" x2="138" y2="8" gradientUnits="userSpaceOnUse">
<stop stop-color="#4991E7"/>
<stop offset="0.5" stop-color="#7F7BD1"/>
<stop offset="1" stop-color="#D26565"/>
</linearGradient>
<linearGradient id="paint29_linear_55067_464" x1="0" y1="8" x2="138" y2="8" gradientUnits="userSpaceOnUse">
<stop stop-color="#4991E7"/>
<stop offset="0.5" stop-color="#7F7BD1"/>
<stop offset="1" stop-color="#D26565"/>
</linearGradient>
<linearGradient id="paint30_linear_55067_464" x1="0" y1="8" x2="138" y2="8" gradientUnits="userSpaceOnUse">
<stop stop-color="#4991E7"/>
<stop offset="0.5" stop-color="#7F7BD1"/>
<stop offset="1" stop-color="#D26565"/>
</linearGradient>
<linearGradient id="paint31_linear_55067_464" x1="0" y1="8" x2="138" y2="8" gradientUnits="userSpaceOnUse">
<stop stop-color="#4991E7"/>
<stop offset="0.5" stop-color="#7F7BD1"/>
<stop offset="1" stop-color="#D26565"/>
</linearGradient>
<linearGradient id="paint32_linear_55067_464" x1="0" y1="8" x2="138" y2="8" gradientUnits="userSpaceOnUse">
<stop stop-color="#4991E7"/>
<stop offset="0.5" stop-color="#7F7BD1"/>
<stop offset="1" stop-color="#D26565"/>
</linearGradient>
<linearGradient id="paint33_linear_55067_464" x1="0" y1="8" x2="138" y2="8" gradientUnits="userSpaceOnUse">
<stop stop-color="#4991E7"/>
<stop offset="0.5" stop-color="#7F7BD1"/>
<stop offset="1" stop-color="#D26565"/>
</linearGradient>
<linearGradient id="paint34_linear_55067_464" x1="0" y1="8" x2="138" y2="8" gradientUnits="userSpaceOnUse">
<stop stop-color="#4991E7"/>
<stop offset="0.5" stop-color="#7F7BD1"/>
<stop offset="1" stop-color="#D26565"/>
</linearGradient>
<linearGradient id="paint35_linear_55067_464" x1="0" y1="8" x2="138" y2="8" gradientUnits="userSpaceOnUse">
<stop stop-color="#4991E7"/>
<stop offset="0.5" stop-color="#7F7BD1"/>
<stop offset="1" stop-color="#D26565"/>
</linearGradient>
</defs>
</svg>
