<svg width="944" height="160" viewBox="0 0 944 160" fill="none" xmlns="http://www.w3.org/2000/svg">
<g clip-path="url(#clip0_55020_1159)">
<path fill-rule="evenodd" clip-rule="evenodd" d="M80 144C115.346 144 144 115.346 144 80C144 44.6538 115.346 16 80 16C44.6538 16 16 44.6538 16 80C16 115.346 44.6538 144 80 144ZM80 112C97.6731 112 112 97.6731 112 80C112 62.3269 97.6731 48 80 48C62.3269 48 48 62.3269 48 80C48 97.6731 62.3269 112 80 112Z" fill="black"/>
</g>
<g clip-path="url(#clip1_55020_1159)">
<circle cx="168" cy="32" r="16" fill="black"/>
<rect x="152" y="32" width="32" height="112" fill="black"/>
</g>
<rect x="312" y="56" width="32" height="88" fill="black"/>
<rect x="360" y="56" width="32" height="88" fill="black"/>
<path fill-rule="evenodd" clip-rule="evenodd" d="M352 16C374.091 16 392 33.9086 392 56H360C360 51.5817 356.418 48 352 48C347.582 48 344 51.5817 344 56H312C312 33.9086 329.909 16 352 16Z" fill="black"/>
<circle cx="208" cy="32" r="16" fill="black"/>
<circle cx="208" cy="128" r="16" fill="black"/>
<rect x="192" y="32" width="32" height="96" fill="black"/>
<rect x="256" y="32" width="32" height="96" fill="black"/>
<rect x="208" y="16" width="96" height="32" fill="black"/>
<rect x="208" y="112" width="96" height="32" fill="black"/>
<g clip-path="url(#clip2_55020_1159)">
<path fill-rule="evenodd" clip-rule="evenodd" d="M480 144C515.346 144 544 115.346 544 80C544 44.6538 515.346 16 480 16C444.654 16 416 44.6538 416 80C416 115.346 444.654 144 480 144ZM480 112C497.673 112 512 97.6731 512 80C512 62.3269 497.673 48 480 48C462.327 48 448 62.3269 448 80C448 97.6731 462.327 112 480 112Z" fill="#446832"/>
</g>
<g clip-path="url(#clip3_55020_1159)">
<circle cx="568" cy="32" r="16" fill="#446832"/>
<rect x="552" y="32" width="32" height="112" fill="#446832"/>
</g>
<circle cx="608" cy="128" r="16" fill="#446832"/>
<circle cx="704" cy="128" r="16" fill="#446832"/>
<rect x="608" y="112" width="96" height="32" fill="#446832"/>
<rect x="608" y="40" width="96" height="32" fill="#446832"/>
<rect x="592" y="16" width="32" height="112" fill="#446832"/>
<rect x="688" y="16" width="32" height="112" fill="#446832"/>
<rect x="848" y="56" width="32" height="88" fill="#446832"/>
<rect x="896" y="56" width="32" height="88" fill="#446832"/>
<path fill-rule="evenodd" clip-rule="evenodd" d="M888 16C910.091 16 928 33.9086 928 56H896C896 51.5817 892.418 48 888 48C883.582 48 880 51.5817 880 56H848C848 33.9086 865.909 16 888 16Z" fill="#446832"/>
<circle cx="744" cy="32" r="16" fill="#446832"/>
<circle cx="744" cy="128" r="16" fill="#446832"/>
<rect x="728" y="32" width="32" height="96" fill="#446832"/>
<rect x="744" y="16" width="96" height="32" fill="#446832"/>
<rect x="744" y="112" width="96" height="32" fill="#446832"/>
<defs>
<clipPath id="clip0_55020_1159">
<rect width="128" height="128" fill="white" transform="translate(16 16)"/>
</clipPath>
<clipPath id="clip1_55020_1159">
<rect width="32" height="128" fill="white" transform="translate(152 16)"/>
</clipPath>
<clipPath id="clip2_55020_1159">
<rect width="128" height="128" fill="white" transform="translate(416 16)"/>
</clipPath>
<clipPath id="clip3_55020_1159">
<rect width="32" height="128" fill="white" transform="translate(552 16)"/>
</clipPath>
</defs>
</svg>
