<svg width="944" height="160" viewBox="0 0 944 160" fill="none" xmlns="http://www.w3.org/2000/svg">
<rect width="944" height="160" fill="white"/>
<g clip-path="url(#clip0_54799_1162)">
<circle cx="80" cy="80" r="64" fill="black"/>
<circle cx="80" cy="80" r="32" fill="white"/>
</g>
<g clip-path="url(#clip1_54799_1162)">
<circle cx="168" cy="32" r="16" fill="black"/>
<rect x="152" y="32" width="32" height="112" fill="black"/>
</g>
<circle cx="352" cy="56" r="40" fill="black"/>
<rect x="312" y="56" width="80" height="48" fill="white"/>
<rect x="312" y="56" width="32" height="88" fill="black"/>
<rect x="360" y="56" width="32" height="88" fill="black"/>
<circle cx="352" cy="56" r="8" fill="white"/>
<circle cx="208" cy="32" r="16" fill="black"/>
<circle cx="208" cy="128" r="16" fill="black"/>
<rect x="192" y="32" width="32" height="96" fill="black"/>
<rect x="256" y="32" width="32" height="96" fill="black"/>
<rect x="208" y="16" width="96" height="32" fill="black"/>
<rect x="208" y="112" width="96" height="32" fill="black"/>
<g clip-path="url(#clip2_54799_1162)">
<circle cx="480" cy="80" r="64" fill="#446832"/>
<circle cx="480" cy="80" r="32" fill="white"/>
</g>
<g clip-path="url(#clip3_54799_1162)">
<circle cx="568" cy="32" r="16" fill="#446832"/>
<rect x="552" y="32" width="32" height="112" fill="#446832"/>
</g>
<circle cx="608" cy="128" r="16" fill="#446832"/>
<circle cx="704" cy="128" r="16" fill="#446832"/>
<rect x="608" y="112" width="96" height="32" fill="#446832"/>
<rect x="608" y="40" width="96" height="32" fill="#446832"/>
<rect x="592" y="16" width="32" height="112" fill="#446832"/>
<rect x="688" y="16" width="32" height="112" fill="#446832"/>
<circle cx="888" cy="56" r="40" fill="#446832"/>
<rect x="848" y="56" width="80" height="48" fill="white"/>
<rect x="848" y="56" width="32" height="88" fill="#446832"/>
<rect x="896" y="56" width="32" height="88" fill="#446832"/>
<circle cx="888" cy="56" r="8" fill="white"/>
<circle cx="744" cy="32" r="16" fill="#446832"/>
<circle cx="744" cy="128" r="16" fill="#446832"/>
<rect x="728" y="32" width="32" height="96" fill="#446832"/>
<rect x="744" y="16" width="96" height="32" fill="#446832"/>
<rect x="744" y="112" width="96" height="32" fill="#446832"/>
<defs>
<clipPath id="clip0_54799_1162">
<rect width="128" height="128" fill="white" transform="translate(16 16)"/>
</clipPath>
<clipPath id="clip1_54799_1162">
<rect width="32" height="128" fill="white" transform="translate(152 16)"/>
</clipPath>
<clipPath id="clip2_54799_1162">
<rect width="128" height="128" fill="white" transform="translate(416 16)"/>
</clipPath>
<clipPath id="clip3_54799_1162">
<rect width="32" height="128" fill="white" transform="translate(552 16)"/>
</clipPath>
</defs>
</svg>
